<svg width="340" height="75" viewBox="0 0 340 75" fill="none" xmlns="http://www.w3.org/2000/svg">
<path d="M53.1725 74.134H40.3152L9.10907 23.5997H8.71682C8.83304 25.303 8.93473 27.1072 9.0219 29.0126C9.13812 30.9179 9.2253 32.8809 9.28341 34.9017C9.37058 36.9225 9.44321 38.9722 9.50132 41.0507V74.134H0V10.8255H12.7702L43.9327 61.0132H44.2378C44.1797 59.5409 44.107 57.8521 44.0199 55.9468C43.9327 54.0415 43.8455 52.0784 43.7583 50.0576C43.7002 48.008 43.6567 46.0305 43.6276 44.1252V10.8255H53.1725V74.134Z" fill="black"/>
<path d="M79.105 26.1979V74.134H68.8627V26.1979H79.105Z" fill="black"/>
<path d="M126.219 60.4503C126.219 63.5969 125.449 66.2529 123.909 68.418C122.369 70.5831 120.118 72.2286 117.154 73.3545C114.219 74.4515 110.616 75 106.345 75C102.975 75 100.069 74.7546 97.6282 74.2639C95.2166 73.802 92.9357 73.0802 90.7855 72.0987V63.3083C93.0809 64.3764 95.6524 65.3002 98.4999 66.0796C101.376 66.8591 104.093 67.2488 106.65 67.2488C110.021 67.2488 112.447 66.7292 113.929 65.6899C115.411 64.6218 116.151 63.2072 116.151 61.4462C116.151 60.407 115.846 59.4832 115.236 58.6749C114.655 57.8377 113.551 56.9861 111.924 56.12C110.326 55.2251 107.972 54.1569 104.863 52.9156C101.812 51.7031 99.2408 50.4907 97.1488 49.2782C95.0568 48.0657 93.4732 46.6079 92.3981 44.9046C91.3231 43.1725 90.7855 40.9641 90.7855 38.2793C90.7855 34.0357 92.4708 30.8168 95.8413 28.6228C99.2408 26.4 103.73 25.2885 109.309 25.2885C112.272 25.2885 115.062 25.5916 117.677 26.1979C120.321 26.7752 122.907 27.6269 125.435 28.7527L122.21 36.4173C120.03 35.4647 117.837 34.6852 115.628 34.079C113.449 33.4439 111.226 33.1263 108.96 33.1263C106.316 33.1263 104.297 33.5305 102.902 34.3388C101.536 35.1471 100.853 36.3018 100.853 37.803C100.853 38.9289 101.188 39.8815 101.856 40.661C102.524 41.4404 103.672 42.2199 105.299 42.9993C106.955 43.7788 109.251 44.7458 112.185 45.9006C115.062 46.9976 117.546 48.1523 119.638 49.3648C121.759 50.5484 123.386 52.0062 124.52 53.7384C125.653 55.4705 126.219 57.7078 126.219 60.4503Z" fill="black"/>
<path d="M147.532 6.755V23.6863C147.532 25.4473 147.474 27.165 147.358 28.8393C147.27 30.5137 147.169 31.8128 147.053 32.7366H147.619C148.636 31.0622 149.886 29.691 151.367 28.6228C152.849 27.5258 154.505 26.7031 156.336 26.1546C158.196 25.6061 160.171 25.3318 162.263 25.3318C165.954 25.3318 169.092 25.9525 171.678 27.1938C174.264 28.4063 176.239 30.2972 177.605 32.8665C179 35.4358 179.697 38.7701 179.697 42.8694V74.134H169.455V44.7747C169.455 41.0507 168.685 38.2649 167.145 36.4173C165.605 34.5409 163.222 33.6026 159.997 33.6026C156.888 33.6026 154.418 34.2522 152.588 35.5513C150.786 36.8215 149.493 38.7123 148.709 41.2239C147.924 43.7066 147.532 46.7378 147.532 50.3174V74.134H137.29V6.755H147.532Z" fill="black"/>
<path d="M212.952 25.2885C219.053 25.2885 223.659 26.6309 226.768 29.3157C229.906 32.0004 231.475 36.1864 231.475 41.8734V74.134H224.196L222.235 67.3354H221.886C220.521 69.0675 219.112 70.4965 217.659 71.6224C216.206 72.7483 214.521 73.5855 212.603 74.134C210.714 74.7113 208.404 75 205.673 75C202.797 75 200.225 74.4804 197.959 73.4411C195.692 72.373 193.905 70.7563 192.598 68.5912C191.29 66.4261 190.637 63.6835 190.637 60.3637C190.637 55.4272 192.482 51.7176 196.172 49.2349C199.891 46.7522 205.499 45.381 212.995 45.1211L221.363 44.818V42.3065C221.363 38.9866 220.579 36.6194 219.01 35.2048C217.47 33.7903 215.291 33.083 212.472 33.083C210.061 33.083 207.722 33.4294 205.455 34.1223C203.189 34.8151 200.981 35.6667 198.83 36.6771L195.518 29.4889C197.872 28.2475 200.545 27.2371 203.538 26.4577C206.559 25.6782 209.697 25.2885 212.952 25.2885ZM221.32 51.2268L215.087 51.4433C209.973 51.6165 206.385 52.4826 204.322 54.0415C202.259 55.6004 201.228 57.7366 201.228 60.4503C201.228 62.8175 201.939 64.5496 203.363 65.6466C204.787 66.7147 206.661 67.2488 208.986 67.2488C212.53 67.2488 215.465 66.2528 217.79 64.2609C220.143 62.2401 221.32 59.2811 221.32 55.3839V51.2268Z" fill="black"/>
<path d="M264.73 25.2885C270.831 25.2885 275.437 26.6309 278.546 29.3157C281.684 32.0004 283.253 36.1864 283.253 41.8734V74.134H275.974L274.013 67.3354H273.664C272.299 69.0675 270.89 70.4965 269.437 71.6224C267.984 72.7483 266.299 73.5855 264.381 74.134C262.492 74.7113 260.182 75 257.451 75C254.575 75 252.003 74.4804 249.737 73.4411C247.47 72.373 245.683 70.7563 244.376 68.5912C243.068 66.4261 242.415 63.6835 242.415 60.3637C242.415 55.4272 244.26 51.7176 247.95 49.2349C251.669 46.7522 257.277 45.381 264.773 45.1211L273.141 44.818V42.3065C273.141 38.9866 272.357 36.6194 270.788 35.2048C269.248 33.7903 267.069 33.083 264.25 33.083C261.839 33.083 259.5 33.4294 257.233 34.1223C254.967 34.8151 252.759 35.6667 250.608 36.6771L247.296 29.4889C249.65 28.2475 252.323 27.2371 255.315 26.4577C258.337 25.6782 261.475 25.2885 264.73 25.2885ZM273.098 51.2268L266.865 51.4433C261.751 51.6165 258.163 52.4826 256.1 54.0415C254.037 55.6004 253.005 57.7366 253.005 60.4503C253.005 62.8175 253.717 64.5496 255.141 65.6466C256.565 66.7147 258.439 67.2488 260.763 67.2488C264.308 67.2488 267.243 66.2528 269.567 64.2609C271.921 62.2401 273.098 59.2811 273.098 55.3839V51.2268Z" fill="black"/>
<path d="M322.741 25.2885C328.174 25.2885 332.402 26.6886 335.424 29.4889C338.474 32.2603 340 36.7204 340 42.8694V74.134H329.758V44.7747C329.758 41.0507 328.988 38.2649 327.448 36.4173C325.908 34.5409 323.525 33.6026 320.3 33.6026C315.622 33.6026 312.368 35.0316 310.537 37.8896C308.736 40.7476 307.835 44.8902 307.835 50.3174V74.134H297.592V26.1979H305.568L307.007 32.6933H307.573C308.619 31.0189 309.912 29.6477 311.452 28.5795C313.021 27.4825 314.765 26.6598 316.682 26.1113C318.629 25.5628 320.649 25.2885 322.741 25.2885Z" fill="black"/>
<path d="M74.5668 10.5349C77.1461 13.5911 76.7451 18.1475 73.6713 20.7119C70.5974 23.2763 66.0147 22.8777 63.4354 19.8215C60.8561 16.7653 59.1603 3.51791 59.1603 3.51791C59.1603 3.51791 71.9875 7.4787 74.5668 10.5349Z" fill="#3EA582"/>
<path d="M84.1712 19.5613C81.5919 22.6174 77.0092 23.0161 73.9353 20.4516C70.8614 17.8872 70.4605 13.3308 73.0398 10.2746C75.619 7.21844 88.4462 3.25764 88.4462 3.25764C88.4462 3.25764 86.7505 16.5051 84.1712 19.5613Z" fill="#51C59E"/>
<path d="M81.4691 15.5053C81.4691 19.5693 80.4234 22.8638 73.8037 22.8638C67.1841 22.8638 66.1384 19.5693 66.1384 15.5053C66.1384 9.69979 73.8037 0 73.8037 0C73.8037 0 81.4691 9.69979 81.4691 15.5053Z" fill="#93CEBA"/>
</svg>
