<svg width="40" height="37" viewBox="0 0 40 37" fill="none" xmlns="http://www.w3.org/2000/svg">
<path d="M2.69008 6.55045L8.90403 17.7043C9.04575 17.9587 9.11707 18.0889 9.15967 18.1862C9.16038 18.1878 9.16107 18.1894 9.16174 18.191C9.16107 18.1925 9.16038 18.1941 9.15967 18.1958C9.11707 18.2931 9.04575 18.4233 8.90403 18.6777L2.69008 29.8315L2.65213 29.8996C2.07833 30.9295 1.59784 31.7919 1.33141 32.4638C1.19446 32.8092 1.0784 33.1882 1.0655 33.5684C1.05142 33.9834 1.16181 34.4249 1.49633 34.7897C1.83084 35.1544 2.26118 35.3026 2.67587 35.3244C3.0557 35.3444 3.44334 35.2615 3.79926 35.1549C4.49166 34.9475 5.3923 34.5433 6.46783 34.0606L6.53905 34.0286L35.733 20.928L35.8034 20.8965C36.6177 20.5311 37.3281 20.2124 37.8267 19.8964C38.3192 19.5843 38.9473 19.064 38.9473 18.191C38.9473 17.318 38.3192 16.7977 37.8267 16.4856C37.3281 16.1696 36.6177 15.8508 35.8034 15.4855L35.733 15.4539L6.53905 2.35335C6.51524 2.34267 6.49151 2.33202 6.46787 2.32141C5.39232 1.83872 4.49167 1.43452 3.79926 1.22712C3.44334 1.12051 3.0557 1.03762 2.67587 1.0576C2.26118 1.07942 1.83084 1.22754 1.49633 1.59231C1.16181 1.95707 1.05142 2.3986 1.0655 2.81363C1.0784 3.19376 1.19446 3.57279 1.33141 3.91818C1.59784 4.59009 2.07832 5.45246 2.65211 6.4823L2.69008 6.55045Z" stroke="black" stroke-width="2"/>
</svg>
