<svg width="51" height="44" viewBox="0 0 51 44" fill="none" xmlns="http://www.w3.org/2000/svg">
<path d="M3.18827 6.73595L11.7984 21.4961C11.9516 21.7589 12.0291 21.8939 12.0754 21.9951C12.0762 21.9968 12.0769 21.9984 12.0776 22C12.0769 22.0016 12.0762 22.0032 12.0754 22.0049C12.0291 22.1061 11.9516 22.2411 11.7984 22.5039L3.18827 37.264L3.14898 37.3314C2.55228 38.3542 2.05292 39.2102 1.77216 39.8788C1.62789 40.2224 1.50394 40.5999 1.48334 40.9803C1.46085 41.3956 1.56253 41.8404 1.89122 42.2123C2.21991 42.5842 2.64886 42.7398 3.06378 42.7685C3.44381 42.7948 3.83367 42.7181 4.19238 42.6172C4.89048 42.4207 5.80133 42.0303 6.88974 41.5638L6.96136 41.5331L46.1046 24.7574L46.1758 24.7269C47.0317 24.3602 47.7736 24.0423 48.2935 23.726C48.7998 23.418 49.4614 22.8957 49.4614 22C49.4614 21.1043 48.7998 20.582 48.2935 20.274C47.7736 19.9577 47.0318 19.6399 46.1759 19.2731L46.1046 19.2426L6.96136 2.4669C6.93738 2.45662 6.91349 2.44638 6.88968 2.43618C5.8013 1.96968 4.89046 1.57928 4.19238 1.38281C3.83367 1.28185 3.44381 1.20523 3.06378 1.23152C2.64886 1.26022 2.21991 1.41579 1.89122 1.78768C1.56253 2.15958 1.46085 2.60439 1.48334 3.01969C1.50394 3.40008 1.62789 3.77757 1.77216 4.12116C2.05292 4.78981 2.55228 5.64578 3.14898 6.6686L3.18827 6.73595Z" stroke="white" stroke-width="2"/>
</svg>
