<svg width="39" height="34" viewBox="0 0 39 34" fill="none" xmlns="http://www.w3.org/2000/svg">
<path d="M3.16267 6.73882L8.80556 16.4995C8.95651 16.7606 9.03275 16.8947 9.07831 16.9952C9.07906 16.9968 9.07979 16.9984 9.08049 17C9.07979 17.0016 9.07906 17.0032 9.07831 17.0048C9.03275 17.1053 8.95651 17.2394 8.80556 17.5005L3.16267 27.2612L3.12363 27.3287C2.53151 28.3528 2.03591 29.21 1.758 29.8793C1.61519 30.2232 1.4928 30.601 1.47372 30.9813C1.45289 31.3965 1.55629 31.8407 1.8861 32.2112C2.21591 32.5817 2.6451 32.7358 3.05997 32.7632C3.43995 32.7883 3.82937 32.7104 4.18751 32.6084C4.88446 32.4098 5.79326 32.0168 6.87907 31.5472L6.9506 31.5163L34.1518 19.7536L34.2229 19.7228C35.0706 19.3563 35.8063 19.0383 36.3219 18.7221C36.8256 18.4132 37.4805 17.8913 37.4805 17C37.4805 16.1087 36.8256 15.5868 36.3219 15.2779C35.8063 14.9617 35.0706 14.6437 34.223 14.2772L34.1518 14.2464L6.95061 2.48374L6.87902 2.45278C5.79324 1.98321 4.88445 1.59018 4.18751 1.39161C3.82937 1.28958 3.43995 1.21175 3.05997 1.23683C2.6451 1.26421 2.21591 1.41834 1.8861 1.78882C1.55629 2.15931 1.45289 2.60345 1.47372 3.0187C1.4928 3.39903 1.61519 3.77682 1.758 4.12075C2.03591 4.79001 2.53151 5.64719 3.12364 6.67131L3.16267 6.73882Z" stroke="black" stroke-width="2"/>
</svg>
