<svg width="37" height="33" viewBox="0 0 37 33" fill="none" xmlns="http://www.w3.org/2000/svg">
<path d="M3.09615 6.74738L8.32415 16.0084C8.4691 16.2652 8.54214 16.3968 8.58578 16.4952C8.5865 16.4968 8.58721 16.4984 8.58789 16.5C8.58721 16.5016 8.5865 16.5032 8.58578 16.5048C8.54214 16.6032 8.4691 16.7348 8.32415 16.9916L3.09615 26.2526L3.05781 26.3205C2.47758 27.3483 1.99178 28.2088 1.72131 28.8797C1.58229 29.2246 1.46399 29.6031 1.44891 29.9833C1.43244 30.3984 1.54036 30.8409 1.87318 31.2077C2.20601 31.5745 2.63591 31.7247 3.05065 31.7486C3.43053 31.7704 3.81879 31.6893 4.17549 31.5843C4.86948 31.3801 5.77298 30.98 6.8521 30.502L6.9234 30.4705L32.2756 19.243L32.3462 19.2118C33.1723 18.846 33.8917 18.5275 34.3963 18.2114C34.8928 17.9004 35.5304 17.3795 35.5304 16.5C35.5304 15.6205 34.8928 15.0996 34.3963 14.7886C33.8917 14.4725 33.1723 14.154 32.3462 13.7882L32.2756 13.757L6.9234 2.52955C6.89954 2.51898 6.87576 2.50845 6.85207 2.49795C5.77296 2.02002 4.86947 1.61986 4.17549 1.41565C3.81879 1.31069 3.43053 1.22963 3.05065 1.25145C2.63591 1.27527 2.20601 1.42554 1.87318 1.79233L2.61375 2.46431L1.87318 1.79233C1.54036 2.15911 1.43244 2.60155 1.44891 3.01665C1.46399 3.39685 1.58229 3.77544 1.7213 4.12029C1.99178 4.79123 2.47758 5.65171 3.0578 6.67945L3.09615 6.74738Z" stroke="black" stroke-width="2"/>
</svg>
