<svg width="670" height="227" viewBox="0 0 670 227" fill="none" xmlns="http://www.w3.org/2000/svg">
<path d="M106.134 146.567H80.8582L19.5109 46.6581H18.7398C18.9683 50.0255 19.1682 53.5927 19.3396 57.3596C19.5681 61.1266 19.7394 65.0077 19.8537 69.0029C20.025 72.9981 20.1678 77.0504 20.2821 81.1598V146.567H1.60369V21.4026H26.7082L87.9697 120.627H88.5695C88.4552 117.716 88.3124 114.377 88.1411 110.61C87.9697 106.843 87.7983 102.962 87.627 98.9671C87.5127 94.9148 87.4271 91.0052 87.3699 87.2382V21.4026H106.134V146.567Z" fill="black"/>
<path d="M157.114 51.7948V146.567H136.979V51.7948H157.114Z" fill="black"/>
<path d="M249.735 119.514C249.735 125.735 248.221 130.986 245.194 135.267C242.166 139.547 237.739 142.801 231.913 145.026C226.144 147.195 219.061 148.28 210.664 148.28C204.038 148.28 198.326 147.795 193.528 146.824C188.787 145.911 184.303 144.484 180.076 142.544V125.164C184.589 127.276 189.644 129.103 195.242 130.644C200.897 132.185 206.238 132.955 211.264 132.955C217.89 132.955 222.66 131.928 225.573 129.873C228.486 127.761 229.943 124.965 229.943 121.483C229.943 119.428 229.343 117.602 228.143 116.004C227.001 114.349 224.83 112.665 221.632 110.953C218.49 109.183 213.863 107.072 207.751 104.617C201.754 102.22 196.698 99.8232 192.586 97.4261C188.473 95.0289 185.36 92.1467 183.247 88.7793C181.133 85.3548 180.076 80.9886 180.076 75.6806C180.076 67.2906 183.389 60.9268 190.015 56.5891C196.698 52.1944 205.524 49.997 216.491 49.997C222.317 49.997 227.801 50.5963 232.941 51.7948C238.139 52.9363 243.223 54.6201 248.192 56.846L241.852 71.9993C237.568 70.1159 233.256 68.5748 228.914 67.3763C224.63 66.1206 220.261 65.4928 215.805 65.4928C210.607 65.4928 206.637 66.2918 203.896 67.8899C201.211 69.488 199.869 71.771 199.869 74.7389C199.869 76.9648 200.525 78.8483 201.839 80.3893C203.153 81.9303 205.409 83.4713 208.608 85.0124C211.864 86.5534 216.376 88.4654 222.146 90.7483C227.801 92.9172 232.684 95.2001 236.797 97.5973C240.967 99.9373 244.165 102.82 246.393 106.244C248.621 109.669 249.735 114.092 249.735 119.514Z" fill="black"/>
<path d="M291.633 13.3551V46.8293C291.633 50.3109 291.518 53.7069 291.29 57.0172C291.119 60.3275 290.919 62.8959 290.69 64.7223H291.804C293.803 61.4119 296.259 58.7009 299.173 56.5891C302.086 54.4203 305.342 52.7937 308.94 51.7092C312.596 50.6248 316.48 50.0826 320.593 50.0826C327.847 50.0826 334.016 51.3097 339.1 53.7639C344.184 56.1611 348.068 59.8995 350.752 64.9791C353.494 70.0588 354.865 76.6509 354.865 84.7555V146.567H334.73V88.5224C334.73 81.1598 333.216 75.6521 330.189 71.9993C327.162 68.2895 322.478 66.4345 316.137 66.4345C310.025 66.4345 305.17 67.7187 301.572 70.2871C298.03 72.7983 295.488 76.5367 293.946 81.5022C292.404 86.4107 291.633 92.4035 291.633 99.4808V146.567H271.498V13.3551H291.633Z" fill="black"/>
<path d="M420.239 49.997C432.235 49.997 441.288 52.651 447.4 57.9589C453.569 63.2669 456.654 71.5427 456.654 82.7864V146.567H442.345L438.489 133.126H437.804C435.119 136.551 432.349 139.376 429.493 141.602C426.637 143.828 423.324 145.483 419.554 146.567C415.841 147.709 411.3 148.28 405.931 148.28C400.276 148.28 395.221 147.252 390.765 145.198C386.31 143.086 382.797 139.89 380.227 135.609C377.656 131.329 376.371 125.906 376.371 119.343C376.371 109.583 379.998 102.249 387.252 97.3405C394.564 92.432 405.588 89.721 420.325 89.2073L436.776 88.608V83.6425C436.776 77.0789 435.234 72.3988 432.149 69.6022C429.122 66.8055 424.838 65.4072 419.297 65.4072C414.556 65.4072 409.958 66.0921 405.502 67.4619C401.047 68.8317 396.706 70.5154 392.479 72.513L385.967 58.3014C390.594 55.8472 395.849 53.8495 401.732 52.3085C407.673 50.7675 413.842 49.997 420.239 49.997ZM436.69 101.279L424.438 101.707C414.385 102.049 407.33 103.761 403.275 106.843C399.219 109.925 397.191 114.149 397.191 119.514C397.191 124.194 398.591 127.619 401.39 129.787C404.189 131.899 407.873 132.955 412.442 132.955C419.411 132.955 425.18 130.986 429.75 127.048C434.377 123.053 436.69 117.202 436.69 109.497V101.279Z" fill="black"/>
<path d="M522.028 49.997C534.023 49.997 543.077 52.651 549.189 57.9589C555.358 63.2669 558.442 71.5427 558.442 82.7864V146.567H544.134L540.278 133.126H539.593C536.908 136.551 534.138 139.376 531.282 141.602C528.426 143.828 525.113 145.483 521.343 146.567C517.63 147.709 513.089 148.28 507.719 148.28C502.064 148.28 497.009 147.252 492.554 145.198C488.099 143.086 484.586 139.89 482.015 135.609C479.445 131.329 478.16 125.906 478.16 119.343C478.16 109.583 481.787 102.249 489.041 97.3405C496.352 92.432 507.377 89.721 522.114 89.2073L538.565 88.608V83.6425C538.565 77.0789 537.022 72.3988 533.938 69.6022C530.91 66.8055 526.626 65.4072 521.086 65.4072C516.345 65.4072 511.746 66.0921 507.291 67.4619C502.836 68.8317 498.494 70.5154 494.268 72.513L487.756 58.3014C492.383 55.8472 497.638 53.8495 503.521 52.3085C509.462 50.7675 515.631 49.997 522.028 49.997ZM538.479 101.279L526.226 101.707C516.173 102.049 509.119 103.761 505.063 106.843C501.008 109.925 498.98 114.149 498.98 119.514C498.98 124.194 500.379 127.619 503.178 129.787C505.977 131.899 509.662 132.955 514.231 132.955C521.2 132.955 526.969 130.986 531.539 127.048C536.165 123.053 538.479 117.202 538.479 109.497V101.279Z" fill="black"/>
<path d="M636.07 49.997C646.752 49.997 655.063 52.7651 661.003 58.3014C667.001 63.7805 670 72.5986 670 84.7555V146.567H649.865V88.5224C649.865 81.1598 648.351 75.6521 645.324 71.9993C642.296 68.2895 637.613 66.4345 631.272 66.4345C622.076 66.4345 615.678 69.2597 612.08 74.9101C608.538 80.5605 606.767 88.7507 606.767 99.4808V146.567H586.631V51.7948H602.312L605.139 64.6367H606.253C608.309 61.3263 610.851 58.6153 613.879 56.5035C616.963 54.3347 620.391 52.708 624.161 51.6236C627.988 50.5392 631.958 49.997 636.07 49.997Z" fill="black"/>
<path d="M17.8564 181.588C15.6089 181.588 13.6022 181.973 11.8363 182.744C10.0703 183.498 8.57736 184.574 7.35728 185.97C6.13719 187.367 5.20609 189.036 4.56394 190.979C3.92179 192.905 3.60071 195.032 3.60071 197.36C3.60071 200.57 4.10641 203.379 5.11779 205.787C6.12918 208.179 7.64625 210.033 9.66901 211.349C11.7078 212.665 14.2443 213.323 17.2785 213.323C19.0444 213.323 20.6498 213.195 22.0946 212.938C23.5394 212.665 24.8799 212.32 26.1161 211.903V214.07C24.9441 214.503 23.6197 214.856 22.1428 215.129C20.6819 215.402 18.9802 215.539 17.0377 215.539C13.5219 215.539 10.568 214.784 8.17602 213.275C5.80007 211.766 4.01007 209.648 2.80604 206.919C1.60201 204.19 1 201.003 1 197.36C1 194.743 1.37726 192.343 2.13179 190.16C2.88631 187.961 3.986 186.059 5.43084 184.454C6.89173 182.832 8.66565 181.58 10.7526 180.697C12.8396 179.798 15.2156 179.349 17.8805 179.349C19.5661 179.349 21.1715 179.517 22.6966 179.855C24.2378 180.176 25.6826 180.649 27.0311 181.275L26.0679 183.442C24.7675 182.8 23.4351 182.335 22.0705 182.046C20.7059 181.741 19.3013 181.588 17.8564 181.588Z" fill="black"/>
<path d="M42.0574 188.426C44.931 188.426 47.0822 189.149 48.511 190.593C49.9398 192.038 50.6542 194.342 50.6542 197.504V215.057H48.7759L48.3424 210.482H48.198C47.6361 211.461 46.9538 212.336 46.1511 213.107C45.3484 213.861 44.3611 214.455 43.1892 214.889C42.0333 215.322 40.6206 215.539 38.951 215.539C37.2654 215.539 35.8205 215.258 34.6165 214.696C33.4285 214.134 32.5054 213.315 31.8472 212.24C31.2051 211.164 30.884 209.856 30.884 208.315C30.884 205.715 31.9596 203.74 34.1108 202.392C36.262 201.027 39.3523 200.257 43.3818 200.08L48.2461 199.84V197.937C48.2461 195.257 47.7163 193.346 46.6568 192.207C45.5972 191.067 44.032 190.497 41.9611 190.497C40.6126 190.497 39.3122 190.674 38.06 191.027C36.8239 191.364 35.5637 191.854 34.2794 192.496L33.5088 190.473C34.761 189.879 36.1015 189.39 37.5302 189.004C38.9751 188.619 40.4841 188.426 42.0574 188.426ZM48.222 201.742L43.6467 201.934C40.3236 202.095 37.7951 202.689 36.0613 203.716C34.3275 204.744 33.4606 206.285 33.4606 208.339C33.4606 209.993 33.9743 211.261 35.0018 212.144C36.0453 213.027 37.4901 213.468 39.3363 213.468C42.2099 213.468 44.4012 212.649 45.9103 211.012C47.4354 209.375 48.206 207.143 48.222 204.318V201.742Z" fill="black"/>
<path d="M69.4851 188.426C70.1754 188.426 70.8256 188.467 71.4356 188.547C72.0456 188.627 72.6156 188.739 73.1453 188.884L72.76 191.123C72.2303 190.979 71.6925 190.874 71.1466 190.81C70.6008 190.73 70.0148 190.69 69.3888 190.69C68.1526 190.69 67.045 190.923 66.0657 191.388C65.1025 191.854 64.2838 192.52 63.6095 193.387C62.9353 194.253 62.4216 195.297 62.0684 196.517C61.7152 197.737 61.5386 199.101 61.5386 200.61V215.057H59.0824V188.884H61.1774L61.4182 193.82H61.5627C61.964 192.809 62.5259 191.902 63.2483 191.099C63.9868 190.28 64.8778 189.63 65.9213 189.149C66.9648 188.667 68.1526 188.426 69.4851 188.426Z" fill="black"/>
<path d="M80.6825 177.591V188.234C80.6825 189.149 80.6665 190.152 80.6343 191.244C80.6022 192.335 80.5701 193.242 80.538 193.964H80.6825C81.3086 192.343 82.4003 191.003 83.9575 189.943C85.5147 188.884 87.4572 188.354 89.785 188.354C93.1884 188.354 95.8131 189.502 97.6593 191.797C99.5215 194.093 100.453 197.456 100.453 201.886C100.453 204.599 100.035 206.983 99.2004 209.038C98.3657 211.076 97.1215 212.673 95.468 213.829C93.8305 214.969 91.7756 215.539 89.3034 215.539C87.0719 215.539 85.2498 215.073 83.8371 214.142C82.4243 213.195 81.3969 212.015 80.7548 210.603H80.5621L80.1046 215.057H78.2504V177.591H80.6825ZM89.5201 190.473C87.4492 190.473 85.7635 190.923 84.4632 191.821C83.1628 192.704 82.2076 193.997 81.5976 195.698C80.9875 197.4 80.6825 199.478 80.6825 201.934V202.32C80.6825 205.931 81.3407 208.684 82.6571 210.579C83.9735 212.473 86.1087 213.42 89.0626 213.42C91.9843 213.42 94.1917 212.425 95.6847 210.434C97.1937 208.428 97.9483 205.578 97.9483 201.886C97.9483 198.114 97.2499 195.273 95.8532 193.363C94.4566 191.436 92.3456 190.473 89.5201 190.473Z" fill="black"/>
<path d="M129.373 201.934C129.373 203.957 129.125 205.803 128.627 207.472C128.129 209.126 127.391 210.554 126.411 211.758C125.432 212.962 124.212 213.893 122.751 214.551C121.306 215.21 119.621 215.539 117.694 215.539C115.864 215.539 114.235 215.218 112.806 214.576C111.377 213.917 110.165 212.986 109.17 211.782C108.191 210.579 107.444 209.15 106.93 207.497C106.417 205.827 106.16 203.973 106.16 201.934C106.16 199.125 106.625 196.709 107.556 194.687C108.504 192.648 109.852 191.091 111.602 190.016C113.368 188.924 115.479 188.378 117.935 188.378C120.472 188.378 122.583 188.956 124.268 190.112C125.97 191.252 127.246 192.841 128.097 194.879C128.948 196.918 129.373 199.27 129.373 201.934ZM108.664 201.934C108.664 204.23 108.993 206.236 109.651 207.954C110.31 209.672 111.305 211.012 112.637 211.975C113.986 212.938 115.688 213.42 117.742 213.42C119.846 213.42 121.571 212.938 122.92 211.975C124.268 211.012 125.264 209.664 125.906 207.93C126.548 206.196 126.869 204.198 126.869 201.934C126.869 199.735 126.564 197.777 125.954 196.059C125.344 194.342 124.381 192.993 123.064 192.014C121.748 191.019 120.03 190.521 117.911 190.521C114.877 190.521 112.573 191.533 111 193.555C109.443 195.578 108.664 198.371 108.664 201.934Z" fill="black"/>
<path d="M148.132 188.378C151.07 188.378 153.326 189.149 154.899 190.69C156.472 192.231 157.259 194.647 157.259 197.937V215.057H154.851V198.082C154.851 195.481 154.257 193.571 153.069 192.351C151.881 191.131 150.155 190.521 147.891 190.521C145.018 190.521 142.818 191.364 141.293 193.049C139.784 194.719 139.03 197.247 139.03 200.634V215.057H136.598V188.884H138.572L138.933 193.651H139.078C139.543 192.672 140.178 191.789 140.98 191.003C141.799 190.2 142.802 189.566 143.99 189.101C145.178 188.619 146.559 188.378 148.132 188.378Z" fill="black"/>
<path d="M190.081 188.378C193.018 188.378 195.274 189.149 196.847 190.69C198.42 192.231 199.207 194.647 199.207 197.937V215.057H196.799V198.082C196.799 195.481 196.205 193.571 195.017 192.351C193.829 191.131 192.103 190.521 189.84 190.521C186.966 190.521 184.767 191.364 183.242 193.049C181.733 194.719 180.978 197.247 180.978 200.634V215.057H178.546V188.884H180.521L180.882 193.651H181.026C181.492 192.672 182.126 191.789 182.929 191.003C183.747 190.2 184.751 189.566 185.939 189.101C187.127 188.619 188.507 188.378 190.081 188.378Z" fill="black"/>
<path d="M217.605 188.378C219.836 188.378 221.69 188.9 223.167 189.943C224.66 190.987 225.768 192.415 226.49 194.229C227.229 196.043 227.598 198.122 227.598 200.466V202.223H208.695C208.695 205.819 209.522 208.58 211.175 210.506C212.845 212.433 215.229 213.396 218.327 213.396C219.949 213.396 221.353 213.267 222.541 213.01C223.745 212.738 225.078 212.28 226.539 211.638V213.877C225.254 214.455 223.97 214.873 222.686 215.129C221.401 215.402 219.924 215.539 218.255 215.539C215.606 215.539 213.383 214.993 211.585 213.901C209.803 212.794 208.454 211.237 207.539 209.23C206.64 207.224 206.19 204.88 206.19 202.199C206.19 199.583 206.624 197.231 207.491 195.144C208.374 193.058 209.658 191.412 211.344 190.208C213.045 188.988 215.132 188.378 217.605 188.378ZM217.581 190.473C215.076 190.473 213.045 191.308 211.488 192.977C209.947 194.631 209.04 197.022 208.767 200.153H225.07C225.07 198.242 224.797 196.557 224.251 195.096C223.705 193.635 222.878 192.504 221.771 191.701C220.679 190.882 219.282 190.473 217.581 190.473Z" fill="black"/>
<path d="M255.146 188.884V215.057H253.172L252.81 210.338H252.666C252.216 211.301 251.582 212.176 250.764 212.962C249.945 213.749 248.941 214.375 247.753 214.84C246.566 215.306 245.185 215.539 243.612 215.539C241.605 215.539 239.919 215.194 238.555 214.503C237.206 213.797 236.187 212.738 235.497 211.325C234.806 209.912 234.461 208.147 234.461 206.028V188.884H236.893V205.787C236.893 208.403 237.479 210.33 238.651 211.566C239.839 212.802 241.573 213.42 243.853 213.42C245.779 213.42 247.392 213.051 248.693 212.312C250.009 211.574 251.004 210.458 251.679 208.965C252.369 207.456 252.714 205.578 252.714 203.331V188.884H255.146Z" fill="black"/>
<path d="M271.015 213.444C271.77 213.444 272.468 213.388 273.11 213.275C273.769 213.163 274.346 213.018 274.844 212.842V214.865C274.33 215.041 273.728 215.194 273.038 215.322C272.348 215.466 271.585 215.539 270.751 215.539C269.274 215.539 268.045 215.266 267.066 214.72C266.087 214.158 265.348 213.315 264.851 212.192C264.353 211.052 264.104 209.607 264.104 207.858V190.907H260.203V189.462L264.08 188.715L264.923 182.551H266.536V188.884H274.7V190.907H266.536V207.713C266.536 209.591 266.882 211.02 267.572 211.999C268.278 212.962 269.426 213.444 271.015 213.444Z" fill="black"/>
<path d="M290.882 188.426C291.572 188.426 292.222 188.467 292.832 188.547C293.442 188.627 294.012 188.739 294.542 188.884L294.157 191.123C293.627 190.979 293.089 190.874 292.543 190.81C291.998 190.73 291.412 190.69 290.786 190.69C289.549 190.69 288.442 190.923 287.462 191.388C286.499 191.854 285.681 192.52 285.006 193.387C284.332 194.253 283.818 195.297 283.465 196.517C283.112 197.737 282.935 199.101 282.935 200.61V215.057H280.479V188.884H282.574L282.815 193.82H282.959C283.361 192.809 283.923 191.902 284.645 191.099C285.384 190.28 286.275 189.63 287.318 189.149C288.361 188.667 289.549 188.426 290.882 188.426Z" fill="black"/>
<path d="M308.822 188.426C311.696 188.426 313.847 189.149 315.276 190.593C316.704 192.038 317.419 194.342 317.419 197.504V215.057H315.54L315.107 210.482H314.963C314.401 211.461 313.718 212.336 312.916 213.107C312.113 213.861 311.126 214.455 309.954 214.889C308.798 215.322 307.385 215.539 305.716 215.539C304.03 215.539 302.585 215.258 301.381 214.696C300.193 214.134 299.27 213.315 298.612 212.24C297.97 211.164 297.649 209.856 297.649 208.315C297.649 205.715 298.724 203.74 300.875 202.392C303.027 201.027 306.117 200.257 310.146 200.08L315.011 199.84V197.937C315.011 195.257 314.481 193.346 313.421 192.207C312.362 191.067 310.797 190.497 308.726 190.497C307.377 190.497 306.077 190.674 304.825 191.027C303.588 191.364 302.328 191.854 301.044 192.496L300.273 190.473C301.526 189.879 302.866 189.39 304.295 189.004C305.74 188.619 307.249 188.426 308.822 188.426ZM314.987 201.742L310.411 201.934C307.088 202.095 304.56 202.689 302.826 203.716C301.092 204.744 300.225 206.285 300.225 208.339C300.225 209.993 300.739 211.261 301.766 212.144C302.81 213.027 304.255 213.468 306.101 213.468C308.974 213.468 311.166 212.649 312.675 211.012C314.2 209.375 314.971 207.143 314.987 204.318V201.742Z" fill="black"/>
<path d="M328.303 215.057H325.847V177.591H328.303V215.057Z" fill="black"/>
<path d="M339.428 188.884V215.057H336.996V188.884H339.428ZM338.248 179.204C338.858 179.204 339.308 179.389 339.597 179.758C339.886 180.111 340.03 180.593 340.03 181.203C340.03 181.813 339.886 182.294 339.597 182.648C339.308 183.001 338.858 183.177 338.248 183.177C337.671 183.177 337.237 183.001 336.948 182.648C336.659 182.294 336.515 181.813 336.515 181.203C336.515 180.593 336.659 180.111 336.948 179.758C337.237 179.389 337.671 179.204 338.248 179.204Z" fill="black"/>
<path d="M355.249 213.444C356.004 213.444 356.702 213.388 357.344 213.275C358.003 213.163 358.581 213.018 359.078 212.842V214.865C358.564 215.041 357.962 215.194 357.272 215.322C356.582 215.466 355.819 215.539 354.984 215.539C353.508 215.539 352.279 215.266 351.3 214.72C350.321 214.158 349.582 213.315 349.085 212.192C348.587 211.052 348.338 209.607 348.338 207.858V190.907H344.437V189.462L348.314 188.715L349.157 182.551H350.77V188.884H358.934V190.907H350.77V207.713C350.77 209.591 351.116 211.02 351.806 211.999C352.512 212.962 353.66 213.444 355.249 213.444Z" fill="black"/>
<path d="M360.379 188.884H362.955L369.312 205.498C369.698 206.477 370.035 207.384 370.324 208.219C370.629 209.038 370.894 209.792 371.118 210.482C371.343 211.156 371.528 211.774 371.672 212.336H371.817C372.058 211.598 372.379 210.651 372.78 209.495C373.181 208.323 373.639 207.023 374.153 205.594L380.438 188.884H383.038L371.094 219.969C370.516 221.478 369.882 222.754 369.192 223.798C368.502 224.857 367.691 225.652 366.76 226.181C365.829 226.727 364.705 227 363.389 227C362.795 227 362.257 226.952 361.775 226.856C361.294 226.775 360.828 226.663 360.379 226.518V224.424C360.796 224.552 361.221 224.656 361.655 224.737C362.104 224.833 362.594 224.881 363.124 224.881C364.039 224.881 364.825 224.688 365.484 224.303C366.158 223.934 366.76 223.356 367.29 222.57C367.819 221.783 368.317 220.78 368.783 219.56L370.565 214.913L360.379 188.884Z" fill="black"/>
<path d="M409.888 190.907H403.724V215.057H401.291V190.907H396.427V189.462L401.291 188.836V185.946C401.291 184.02 401.564 182.423 402.11 181.155C402.672 179.871 403.515 178.915 404.639 178.289C405.778 177.647 407.215 177.326 408.949 177.326C409.848 177.326 410.659 177.399 411.381 177.543C412.104 177.671 412.778 177.84 413.404 178.049L412.85 180.095C412.288 179.903 411.662 179.742 410.972 179.614C410.298 179.485 409.631 179.421 408.973 179.421C407.127 179.421 405.786 179.935 404.952 180.962C404.133 181.973 403.724 183.627 403.724 185.922V188.884H409.888V190.907Z" fill="black"/>
<path d="M436.69 201.934C436.69 203.957 436.441 205.803 435.943 207.472C435.446 209.126 434.707 210.554 433.728 211.758C432.749 212.962 431.529 213.893 430.068 214.551C428.623 215.21 426.937 215.539 425.011 215.539C423.181 215.539 421.551 215.218 420.122 214.576C418.694 213.917 417.482 212.986 416.486 211.782C415.507 210.579 414.761 209.15 414.247 207.497C413.733 205.827 413.476 203.973 413.476 201.934C413.476 199.125 413.942 196.709 414.873 194.687C415.82 192.648 417.169 191.091 418.918 190.016C420.684 188.924 422.795 188.378 425.252 188.378C427.788 188.378 429.899 188.956 431.585 190.112C433.287 191.252 434.563 192.841 435.414 194.879C436.264 196.918 436.69 199.27 436.69 201.934ZM415.981 201.934C415.981 204.23 416.31 206.236 416.968 207.954C417.626 209.672 418.621 211.012 419.954 211.975C421.302 212.938 423.004 213.42 425.059 213.42C427.162 213.42 428.888 212.938 430.236 211.975C431.585 211.012 432.58 209.664 433.222 207.93C433.864 206.196 434.186 204.198 434.186 201.934C434.186 199.735 433.881 197.777 433.27 196.059C432.66 194.342 431.697 192.993 430.381 192.014C429.064 191.019 427.347 190.521 425.228 190.521C422.193 190.521 419.89 191.533 418.316 193.555C416.759 195.578 415.981 198.371 415.981 201.934Z" fill="black"/>
<path d="M454.341 188.426C455.031 188.426 455.681 188.467 456.292 188.547C456.902 188.627 457.471 188.739 458.001 188.884L457.616 191.123C457.086 190.979 456.548 190.874 456.003 190.81C455.457 190.73 454.871 190.69 454.245 190.69C453.009 190.69 451.901 190.923 450.922 191.388C449.958 191.854 449.14 192.52 448.465 193.387C447.791 194.253 447.277 195.297 446.924 196.517C446.571 197.737 446.394 199.101 446.394 200.61V215.057H443.938V188.884H446.033L446.274 193.82H446.418C446.82 192.809 447.382 191.902 448.104 191.099C448.843 190.28 449.734 189.63 450.777 189.149C451.821 188.667 453.009 188.426 454.341 188.426Z" fill="black"/>
<path d="M485.092 188.426C487.966 188.426 490.117 189.149 491.546 190.593C492.974 192.038 493.689 194.342 493.689 197.504V215.057H491.81L491.377 210.482H491.232C490.671 211.461 489.988 212.336 489.186 213.107C488.383 213.861 487.396 214.455 486.224 214.889C485.068 215.322 483.655 215.539 481.986 215.539C480.3 215.539 478.855 215.258 477.651 214.696C476.463 214.134 475.54 213.315 474.882 212.24C474.24 211.164 473.919 209.856 473.919 208.315C473.919 205.715 474.994 203.74 477.145 202.392C479.297 201.027 482.387 200.257 486.416 200.08L491.281 199.84V197.937C491.281 195.257 490.751 193.346 489.691 192.207C488.632 191.067 487.067 190.497 484.996 190.497C483.647 190.497 482.347 190.674 481.095 191.027C479.858 191.364 478.598 191.854 477.314 192.496L476.543 190.473C477.796 189.879 479.136 189.39 480.565 189.004C482.01 188.619 483.519 188.426 485.092 188.426ZM491.257 201.742L486.681 201.934C483.358 202.095 480.83 202.689 479.096 203.716C477.362 204.744 476.495 206.285 476.495 208.339C476.495 209.993 477.009 211.261 478.036 212.144C479.08 213.027 480.525 213.468 482.371 213.468C485.244 213.468 487.436 212.649 488.945 211.012C490.47 209.375 491.241 207.143 491.257 204.318V201.742Z" fill="black"/>
<path d="M504.573 215.057H502.117V177.591H504.573V215.057Z" fill="black"/>
<path d="M515.747 215.057H513.29V177.591H515.747V215.057Z" fill="black"/>
<path d="M148.192 20.8281C153.263 26.8704 152.475 35.8787 146.432 40.9487C140.389 46.0188 131.38 45.2307 126.309 39.1884C121.239 33.1462 117.905 6.95512 117.905 6.95512C117.905 6.95512 143.122 14.7859 148.192 20.8281Z" fill="#3EA582"/>
<path d="M167.073 38.6739C162.003 44.7161 152.994 45.5042 146.951 40.4342C140.908 35.3641 140.12 26.3558 145.19 20.3136C150.261 14.2713 175.478 6.44057 175.478 6.44057C175.478 6.44057 172.144 32.6316 167.073 38.6739Z" fill="#51C59E"/>
<path d="M161.761 30.655C161.761 38.6897 159.706 45.2031 146.692 45.2031C133.679 45.2031 131.623 38.6897 131.623 30.655C131.623 19.1771 146.692 0 146.692 0C146.692 0 161.761 19.1771 161.761 30.655Z" fill="#93CEBA"/>
</svg>
