<svg width="70" height="70" viewBox="0 0 70 70" fill="none" xmlns="http://www.w3.org/2000/svg">
<path fill-rule="evenodd" clip-rule="evenodd" d="M47.261 10.3881C44.9852 8.75 41.5962 8.75 35.2638 8.75H34.7385C27.9267 8.75 24.5208 8.75 22.2428 10.789C19.9647 12.828 19.5886 16.213 18.8363 22.9831L17.8868 31.5293L17.8868 31.5294C17.6947 33.2579 17.5987 34.1222 17.3227 34.9398C17.0467 35.7573 16.5993 36.503 15.7045 37.9944L10.5685 46.5543C9.76277 47.8973 9.35989 48.5687 9.64712 49.076C9.93435 49.5833 10.7174 49.5833 12.2835 49.5833H57.7188C59.2849 49.5833 60.0679 49.5833 60.3551 49.076C60.6424 48.5687 60.2395 47.8973 59.4337 46.5543L54.2978 37.9944C53.4029 36.503 52.9555 35.7573 52.6796 34.9398C52.4036 34.1222 52.3076 33.258 52.1155 31.5294L52.1155 31.5293L51.5323 26.2808C47.1096 25.7984 43.6678 22.0511 43.6678 17.5C43.6678 14.5833 45.0815 11.9967 47.261 10.3881ZM49.1937 12.6942C47.6679 13.7464 46.6678 15.5064 46.6678 17.5C46.6678 20.2703 48.5989 22.5895 51.1884 23.185L51.1659 22.9831C50.6098 17.978 50.2592 14.823 49.1937 12.6942Z" fill="#7C7C7C"/>
<path d="M26.25 49.5834C26.25 50.7324 26.4763 51.8703 26.9161 52.9319C27.3558 53.9935 28.0003 54.958 28.8128 55.7706C29.6253 56.5831 30.5899 57.2276 31.6515 57.6673C32.7131 58.107 33.8509 58.3334 35 58.3334C36.1491 58.3334 37.2869 58.107 38.3485 57.6673C39.4101 57.2276 40.3747 56.5831 41.1872 55.7706C41.9997 54.958 42.6442 53.9935 43.0839 52.9319C43.5237 51.8703 43.75 50.7324 43.75 49.5834L35 49.5834H26.25Z" fill="#7C7C7C"/>
<path d="M52.5013 23.8333C55.9991 23.8333 58.8346 20.9978 58.8346 17.5C58.8346 14.0022 55.9991 11.1666 52.5013 11.1666C49.0035 11.1666 46.168 14.0022 46.168 17.5C46.168 20.9978 49.0035 23.8333 52.5013 23.8333Z" fill="#7C7C7C" stroke="#7C7C7C"/>
</svg>
