<svg width="70" height="70" viewBox="0 0 70 70" fill="none" xmlns="http://www.w3.org/2000/svg">
<path fill-rule="evenodd" clip-rule="evenodd" d="M18.9596 46.6667H46.668C52.1677 46.6667 54.9175 46.6667 56.6261 44.9581C58.3346 43.2496 58.3346 40.4997 58.3346 35V20.4167C58.3346 14.9169 58.3346 12.1671 56.6261 10.4585C54.9175 8.75 52.1677 8.75 46.668 8.75H23.3346C17.8349 8.75 15.0851 8.75 13.3765 10.4585C11.668 12.1671 11.668 14.9169 11.668 20.4167V53.9583C11.668 49.9313 14.9326 46.6667 18.9596 46.6667ZM45.1655 24.7475C45.9466 23.9665 45.9466 22.7002 45.1655 21.9191C44.3845 21.1381 43.1181 21.1381 42.3371 21.9191L32.0846 32.1716L27.6655 27.7525C26.8845 26.9714 25.6181 26.9714 24.8371 27.7525C24.056 28.5335 24.056 29.7998 24.8371 30.5809L29.9633 35.7071C31.1349 36.8787 33.0344 36.8787 34.206 35.7071L45.1655 24.7475Z" fill="#51C59E"/>
<path d="M56.6261 44.9581L55.919 44.251H55.919L56.6261 44.9581ZM56.6261 10.4585L55.919 11.1657L55.919 11.1657L56.6261 10.4585ZM45.1655 21.9191L44.4584 22.6262V22.6262L45.1655 21.9191ZM45.1655 24.7475L44.4584 24.0404L44.4584 24.0404L45.1655 24.7475ZM42.3371 21.9191L43.0442 22.6262L42.3371 21.9191ZM32.0846 32.1716L31.3775 32.8787L32.0846 33.5858L32.7917 32.8787L32.0846 32.1716ZM24.8371 30.5809L25.5442 29.8738H25.5442L24.8371 30.5809ZM29.9633 35.7071L29.2562 36.4142L29.9633 35.7071ZM34.206 35.7071L34.9131 36.4142L34.206 35.7071ZM46.668 45.6667H18.9596V47.6667H46.668V45.6667ZM55.919 44.251C55.2815 44.8885 54.4131 45.2634 52.9355 45.462C51.4291 45.6645 49.4461 45.6667 46.668 45.6667V47.6667C49.3896 47.6667 51.5313 47.6688 53.202 47.4442C54.9014 47.2157 56.2622 46.7363 57.3332 45.6652L55.919 44.251ZM57.3346 35C57.3346 37.7781 57.3325 39.7611 57.13 41.2675C56.9313 42.7451 56.5565 43.6135 55.919 44.251L57.3332 45.6652C58.4042 44.5942 58.8837 43.2334 59.1121 41.534C59.3368 39.8634 59.3346 37.7216 59.3346 35H57.3346ZM57.3346 20.4167V35H59.3346V20.4167H57.3346ZM55.919 11.1657C56.5565 11.8032 56.9313 12.6716 57.13 14.1492C57.3325 15.6555 57.3346 17.6385 57.3346 20.4167H59.3346C59.3346 17.6951 59.3368 15.5533 59.1121 13.8827C58.8837 12.1833 58.4042 10.8225 57.3332 9.75144L55.919 11.1657ZM46.668 9.75C49.4461 9.75 51.4291 9.75212 52.9355 9.95465C54.4131 10.1533 55.2815 10.5281 55.919 11.1657L57.3332 9.75144C56.2622 8.6804 54.9014 8.20096 53.202 7.97249C51.5313 7.74788 49.3896 7.75 46.668 7.75V9.75ZM23.3346 9.75H46.668V7.75H23.3346V9.75ZM14.0836 11.1657C14.7211 10.5281 15.5895 10.1533 17.0671 9.95465C18.5735 9.75212 20.5565 9.75 23.3346 9.75V7.75C20.613 7.75 18.4713 7.74788 16.8006 7.97249C15.1012 8.20096 13.7404 8.6804 12.6694 9.75144L14.0836 11.1657ZM12.668 20.4167C12.668 17.6385 12.6701 15.6555 12.8726 14.1492C13.0713 12.6716 13.4461 11.8032 14.0836 11.1657L12.6694 9.75144C11.5984 10.8225 11.1189 12.1833 10.8905 13.8827C10.6658 15.5533 10.668 17.6951 10.668 20.4167H12.668ZM12.668 53.9583V20.4167H10.668V53.9583H12.668ZM18.9596 45.6667C14.3803 45.6667 10.668 49.379 10.668 53.9583H12.668C12.668 50.4835 15.4848 47.6667 18.9596 47.6667V45.6667ZM44.4584 22.6262C44.8489 23.0168 44.8489 23.6499 44.4584 24.0404L45.8726 25.4547C47.0442 24.2831 47.0442 22.3836 45.8726 21.212L44.4584 22.6262ZM43.0442 22.6262C43.4347 22.2357 44.0679 22.2357 44.4584 22.6262L45.8726 21.212C44.7011 20.0404 42.8016 20.0404 41.63 21.212L43.0442 22.6262ZM32.7917 32.8787L43.0442 22.6262L41.63 21.212L31.3775 31.4645L32.7917 32.8787ZM26.9584 28.4596L31.3775 32.8787L32.7917 31.4645L28.3726 27.0453L26.9584 28.4596ZM25.5442 28.4596C25.9347 28.069 26.5679 28.069 26.9584 28.4596L28.3726 27.0453C27.201 25.8738 25.3016 25.8738 24.13 27.0453L25.5442 28.4596ZM25.5442 29.8738C25.1537 29.4832 25.1537 28.8501 25.5442 28.4596L24.13 27.0453C22.9584 28.2169 22.9584 30.1164 24.13 31.288L25.5442 29.8738ZM30.6704 35L25.5442 29.8738L24.13 31.288L29.2562 36.4142L30.6704 35ZM33.4988 35C32.7178 35.781 31.4515 35.781 30.6704 35L29.2562 36.4142C30.8183 37.9763 33.351 37.9763 34.9131 36.4142L33.4988 35ZM44.4584 24.0404L33.4988 35L34.9131 36.4142L45.8726 25.4547L44.4584 24.0404ZM32.0846 60.25H18.9596V62.25H32.0846V60.25ZM10.668 53.9583C10.668 58.5377 14.3803 62.25 18.9596 62.25V60.25C15.4848 60.25 12.668 57.4331 12.668 53.9583H10.668Z" fill="#51C59E"/>
<path d="M58.3346 61.25H29.168" stroke="#51C59E" stroke-width="2" stroke-linecap="round"/>
</svg>
