<svg width="51" height="44" viewBox="0 0 51 44" fill="none" xmlns="http://www.w3.org/2000/svg">
<path d="M47.8117 6.73595L39.2016 21.4961C39.0484 21.7589 38.9709 21.8939 38.9246 21.9951C38.9238 21.9968 38.9231 21.9984 38.9224 22C38.9231 22.0016 38.9238 22.0032 38.9246 22.0049C38.9709 22.1061 39.0484 22.2411 39.2016 22.5039L47.8117 37.264L47.851 37.3314C48.4477 38.3542 48.9471 39.2102 49.2278 39.8788C49.3721 40.2224 49.4961 40.5999 49.5167 40.9803C49.5391 41.3956 49.4375 41.8404 49.1088 42.2123C48.7801 42.5842 48.3511 42.7398 47.9362 42.7685C47.5562 42.7948 47.1663 42.7181 46.8076 42.6172C46.1095 42.4207 45.1987 42.0303 44.1103 41.5638L44.0386 41.5331L4.89542 24.7574L4.82417 24.7269C3.96828 24.3602 3.22638 24.0423 2.70654 23.726C2.20021 23.418 1.53859 22.8957 1.53859 22C1.53859 21.1043 2.20021 20.582 2.70654 20.274C3.22638 19.9577 3.96828 19.6398 4.82417 19.2731L4.89543 19.2426L44.0386 2.4669C44.0626 2.45663 44.0865 2.44638 44.1103 2.43618C45.1987 1.96968 46.1095 1.57928 46.8076 1.38281C47.1663 1.28185 47.5562 1.20523 47.9362 1.23152C48.3511 1.26022 48.7801 1.41579 49.1088 1.78768C49.4375 2.15958 49.5391 2.60439 49.5167 3.01969C49.4961 3.40008 49.3721 3.77757 49.2278 4.12116C48.9471 4.78981 48.4477 5.64578 47.851 6.6686L47.8117 6.73595Z" stroke="black" stroke-width="2"/>
</svg>
